<svg xmlns="http://www.w3.org/2000/svg" width="89" height="19" viewBox="0 0 89 19" fill="none">
  <path d="M5.95 11.2C3.85 10.5333 2.33333 9.70833 1.4 8.725C0.466667 7.725 0 6.50833 0 5.075C0 3.50833 0.541667 2.275 1.625 1.375C2.725 0.458333 4.29167 0 6.325 0C7.85833 0 9.25 0.175 10.5 0.524999C10.9 0.641666 11.2167 0.883333 11.45 1.25C11.7 1.6 11.825 1.99167 11.825 2.425V3.15C11.825 3.48333 11.6833 3.74167 11.4 3.925C11.1167 4.10833 10.8167 4.14167 10.5 4.025C9.08333 3.525 7.775 3.275 6.575 3.275C5.04167 3.275 4.275 3.875 4.275 5.075C4.275 6.09167 4.94167 6.81667 6.275 7.25C8.575 7.95 10.1667 8.76667 11.05 9.7C11.95 10.6333 12.4 11.8583 12.4 13.375C12.4 16.9583 10.1417 18.75 5.625 18.75C4.19167 18.75 2.89167 18.525 1.725 18.075C1.325 17.925 1.00833 17.6667 0.775 17.3C0.558333 16.9167 0.45 16.5 0.45 16.05V15.25C0.45 14.95 0.583333 14.725 0.85 14.575C1.11667 14.4083 1.38333 14.3917 1.65 14.525C2.86667 15.125 4.10833 15.425 5.375 15.425C6.25833 15.425 6.925 15.2583 7.375 14.925C7.84167 14.575 8.075 14.0833 8.075 13.45C8.075 12.9 7.91667 12.45 7.6 12.1C7.28333 11.75 6.73333 11.45 5.95 11.2Z" fill="black"/>
  <path d="M15.8781 3.775C15.4948 3.775 15.1615 3.63333 14.8781 3.35C14.5948 3.06667 14.4531 2.73333 14.4531 2.35V1.675C14.4531 1.29167 14.5948 0.958332 14.8781 0.674999C15.1615 0.391666 15.4948 0.25 15.8781 0.25H27.0281C27.4115 0.25 27.7448 0.391666 28.0281 0.674999C28.3115 0.958332 28.4531 1.29167 28.4531 1.675V2.35C28.4531 2.73333 28.3115 3.06667 28.0281 3.35C27.7448 3.63333 27.4115 3.775 27.0281 3.775H23.8281C23.6948 3.775 23.6281 3.84167 23.6281 3.975V17.075C23.6281 17.4583 23.4865 17.7917 23.2031 18.075C22.9198 18.3583 22.5865 18.5 22.2031 18.5H20.7031C20.3198 18.5 19.9865 18.3583 19.7031 18.075C19.4198 17.7917 19.2781 17.4583 19.2781 17.075V3.975C19.2781 3.84167 19.2115 3.775 19.0781 3.775H15.8781Z" fill="black"/>
  <path d="M45.3809 11.875C45.3809 16.4583 43.0475 18.75 38.3809 18.75C33.7142 18.75 31.3809 16.4583 31.3809 11.875V1.675C31.3809 1.29167 31.5225 0.958332 31.8059 0.674999C32.0892 0.391666 32.4225 0.25 32.8059 0.25H34.2559C34.6392 0.25 34.9725 0.391666 35.2559 0.674999C35.5392 0.958332 35.6809 1.29167 35.6809 1.675V12.175C35.6809 13.3083 35.8975 14.1167 36.3309 14.6C36.7642 15.0833 37.4642 15.325 38.4309 15.325C39.3975 15.325 40.0975 15.0833 40.5309 14.6C40.9642 14.1167 41.1809 13.3083 41.1809 12.175V1.675C41.1809 1.29167 41.3225 0.958332 41.6059 0.674999C41.8892 0.391666 42.2225 0.25 42.6059 0.25H43.9559C44.3392 0.25 44.6725 0.391666 44.9559 0.674999C45.2392 0.958332 45.3809 1.29167 45.3809 1.675V11.875Z" fill="black"/>
  <path d="M53.0904 3.7V15.05C53.0904 15.2 53.1654 15.2917 53.3154 15.325C53.6488 15.3917 54.0488 15.425 54.5154 15.425C56.1988 15.425 57.4404 14.9333 58.2404 13.95C59.0571 12.9667 59.4654 11.3583 59.4654 9.125C59.4654 7.125 59.0571 5.65833 58.2404 4.725C57.4238 3.79167 56.1821 3.325 54.5154 3.325C54.0488 3.325 53.6488 3.35833 53.3154 3.425C53.1654 3.45833 53.0904 3.55 53.0904 3.7ZM50.3404 18.55C49.9404 18.5167 49.6071 18.35 49.3404 18.05C49.0738 17.7333 48.9404 17.3667 48.9404 16.95V1.8C48.9404 1.38333 49.0738 1.025 49.3404 0.725C49.6071 0.408333 49.9404 0.233333 50.3404 0.199999C51.6404 0.0666663 52.9238 0 54.1904 0C57.1738 0 59.4738 0.791667 61.0904 2.375C62.7071 3.95833 63.5154 6.20833 63.5154 9.125C63.5154 12.2917 62.7071 14.6917 61.0904 16.325C59.4738 17.9417 57.1738 18.75 54.1904 18.75C52.9238 18.75 51.6404 18.6833 50.3404 18.55Z" fill="black"/>
  <path d="M78.4395 3.7L76.6145 10.875C76.5978 10.925 76.6061 10.975 76.6395 11.025C76.6895 11.0583 76.7395 11.075 76.7895 11.075H80.1395C80.1895 11.075 80.2311 11.0583 80.2645 11.025C80.3145 10.975 80.3312 10.925 80.3145 10.875L78.4895 3.7C78.4895 3.68333 78.4812 3.675 78.4645 3.675C78.4478 3.675 78.4395 3.68333 78.4395 3.7ZM71.7645 18.25C71.4145 18.25 71.1311 18.1083 70.9145 17.825C70.7145 17.5417 70.6728 17.2333 70.7895 16.9L75.8395 1.35C75.9728 0.949999 76.2061 0.625 76.5395 0.375C76.8895 0.125 77.2728 2.38419e-07 77.6895 2.38419e-07H79.3395C79.7728 2.38419e-07 80.1645 0.125 80.5145 0.375C80.8645 0.625 81.0978 0.949999 81.2145 1.35L86.2395 16.9C86.3561 17.2333 86.3062 17.5417 86.0895 17.825C85.8895 18.1083 85.6145 18.25 85.2645 18.25H83.5895C83.1728 18.25 82.7978 18.125 82.4645 17.875C82.1312 17.6083 81.9145 17.275 81.8145 16.875L81.2145 14.5C81.1978 14.3667 81.1145 14.3 80.9645 14.3H75.9645C75.8312 14.3 75.7478 14.3667 75.7145 14.5L75.1145 16.875C75.0145 17.275 74.7978 17.6083 74.4645 17.875C74.1311 18.125 73.7561 18.25 73.3395 18.25H71.7645Z" fill="black"/>
  <path d="M84.0281 7.54713C83.9926 7.43204 83.9744 7.31383 83.9732 7.19338L83.916 1.425C83.916 1.04167 84.0494 0.708333 84.316 0.424999C84.5994 0.141667 84.9327 2.38419e-07 85.316 2.38419e-07H87.166C87.5494 2.38419e-07 87.8744 0.141667 88.141 0.424999C88.4244 0.708333 88.566 1.04167 88.566 1.425L88.2895 14C88.2895 14.5 86.475 14.625 86.225 14.25C85.9993 13.9114 84.3467 8.57899 84.0281 7.54713Z" fill="black"/>
  <path d="M84.0246 7.54713C83.989 7.43204 83.9709 7.31383 83.9697 7.19338L83.9125 1.425C83.9125 1.04167 84.0458 0.708333 84.3125 0.424999C84.5958 0.141667 84.9292 2.38419e-07 85.3125 2.38419e-07H87.1625C87.5458 2.38419e-07 87.8708 0.141667 88.1375 0.424999C88.4208 0.708333 88.5625 1.04167 88.5625 1.425L88.2859 14C88.2859 14.5 86.4715 14.625 86.2215 14.25C85.9957 13.9114 84.3432 8.57899 84.0246 7.54713Z" fill="url(#paint0_linear_52_23804)"/>
  <path d="M70.225 9.125C70.225 10.2986 69.2736 11.25 68.1 11.25C66.9264 11.25 65.975 10.2986 65.975 9.125C65.975 7.9514 66.9264 7 68.1 7C69.2736 7 70.225 7.9514 70.225 9.125Z" fill="#70EFFC"/>
  <path d="M70.225 9.125C70.225 10.2986 69.2736 11.25 68.1 11.25C66.9264 11.25 65.975 10.2986 65.975 9.125C65.975 7.9514 66.9264 7 68.1 7C69.2736 7 70.225 7.9514 70.225 9.125Z" fill="url(#paint1_linear_52_23804)"/>
  <defs>
    <linearGradient id="paint0_linear_52_23804" x1="44.283" y1="0" x2="44.283" y2="18.75" gradientUnits="userSpaceOnUse">
      <stop stop-color="#79F5FB"/>
      <stop offset="1" stop-color="#5DCAFA"/>
    </linearGradient>
    <linearGradient id="paint1_linear_52_23804" x1="68.0996" y1="7" x2="68.0996" y2="11.25" gradientUnits="userSpaceOnUse">
      <stop stop-color="#79F5FB"/>
      <stop offset="1" stop-color="#5DCAFA"/>
    </linearGradient>
  </defs>
</svg>